<svg width="1728" height="1117" viewBox="0 0 1728 1117" fill="none" xmlns="http://www.w3.org/2000/svg">
<g clip-path="url(#clip0_102_48)">
<rect width="1728" height="1117" fill="#001D2C"/>
<path d="M186.338 429.916C219.11 427.605 248.212 431.986 273.643 443.058C299.553 453.582 320.273 471.161 335.804 495.796C351.847 520.395 361.164 552.158 363.756 591.085L379.358 825.417L324.823 829.262L309.579 600.309C306.749 557.796 293.864 526.542 270.925 506.546C248.464 486.002 218.031 477.083 179.627 479.791C150.951 481.813 126.252 489.473 105.53 502.77C85.2859 515.518 70.0082 533.32 59.6972 556.175C49.8641 578.482 45.9707 605.001 48.0168 635.733L62.1353 847.784L7.60066 851.629L-30.3555 281.551L24.1791 277.706L42.6457 555.062L30.5112 535.076C41.3689 504.978 60.3338 480.741 87.406 462.365C114.444 443.476 147.421 432.66 186.338 429.916ZM698.204 806.795C656.215 809.755 618.767 803.647 585.86 788.471C552.918 772.783 526.463 750.204 506.495 720.736C486.493 690.756 475.161 655.789 472.501 615.838C469.841 575.886 475.937 539.949 490.789 508.025C506.153 476.066 528.105 450.332 556.645 430.823C585.663 410.766 618.863 399.419 656.243 396.784C694.136 394.112 728.256 400.454 758.603 415.811C789.428 430.62 814.329 453.05 833.308 483.103C852.252 512.643 863.071 547.646 865.765 588.109C865.936 590.67 865.867 593.506 865.56 596.615C865.73 599.176 865.918 601.993 866.122 605.066L515.104 629.816L512.393 589.096L834.224 566.404L813.791 584.055C811.848 554.86 803.725 529.445 789.422 507.811C775.598 485.628 757.507 468.893 735.148 457.604C712.788 446.315 687.527 441.664 659.364 443.65C631.712 445.6 607.304 453.753 586.137 468.111C564.971 482.468 549.011 501.605 538.256 525.52C527.501 549.436 523.113 576.247 525.091 605.955L525.653 614.406C527.699 645.138 536.164 671.815 551.046 694.438C566.406 716.512 586.563 733.359 611.517 744.979C636.948 756.051 665.282 760.486 696.518 758.284C721.097 756.55 743.594 750.59 764.009 740.402C784.935 730.179 802.483 715.562 816.651 696.552L849.728 729.727C833.238 752.503 811.799 770.482 785.41 783.664C759.533 796.81 730.464 804.52 698.204 806.795ZM990.22 782.345L952.264 212.267L1006.8 208.422L1044.75 778.5L990.22 782.345ZM1196.5 767.801L1158.54 197.723L1213.07 193.878L1251.03 763.956L1196.5 767.801ZM1567.4 745.509C1528.48 748.253 1492.83 742.019 1460.43 726.806C1428.51 711.046 1402.57 688.431 1382.6 658.963C1362.6 628.982 1351.27 594.016 1348.61 554.065C1345.91 513.601 1352.5 477.371 1368.38 445.376C1384.26 413.38 1406.98 387.592 1436.54 368.01C1466.11 348.429 1500.6 337.249 1540.03 334.469C1579.97 331.653 1615.88 337.869 1647.77 353.117C1680.16 368.33 1706.09 390.688 1725.54 420.192C1745.51 449.661 1756.84 484.627 1759.54 525.09C1762.2 565.042 1755.61 601.272 1739.76 633.78C1724.4 665.739 1701.7 691.784 1671.66 711.913C1641.58 731.53 1606.83 742.729 1567.4 745.509ZM1564.18 697.106C1593.36 695.048 1618.8 686.822 1640.47 672.429C1662.12 657.523 1678.56 637.838 1689.79 613.374C1701.5 588.362 1706.32 560.234 1704.24 528.99C1702.12 497.233 1693.62 470.044 1678.74 447.422C1664.37 424.763 1645.49 407.826 1622.11 396.609C1598.69 384.881 1572.65 380.027 1543.97 382.049C1515.29 384.071 1490.14 392.535 1468.49 407.441C1446.81 421.834 1430.1 441.281 1418.36 465.781C1406.61 490.281 1401.8 518.409 1403.91 550.165C1405.99 581.41 1414.49 608.599 1429.41 631.734C1444.29 654.356 1463.44 671.532 1486.86 683.26C1510.24 694.476 1536.01 699.092 1564.18 697.106Z" fill="#B6B6B6" fill-opacity="0.03"/>
</g>
<defs>
<clipPath id="clip0_102_48">
<rect width="1728" height="1117" fill="white"/>
</clipPath>
</defs>
</svg>
