<svg width="200" height="200" viewBox="0 0 200 200" fill="none" xmlns="http://www.w3.org/2000/svg">
<rect width="200" height="200" fill="#001D2C"/>
<rect x="106" y="14" width="80" height="80" fill="#FFFEFE"/>
<rect x="14" y="106" width="80" height="80" fill="#FFFEFE"/>
<rect x="106" y="106" width="80" height="80" fill="#FB8500"/>
<rect x="14" y="14" width="80" height="80" fill="white"/>
<rect x="39" y="69" width="30" height="25" fill="#001D2C"/>
<rect x="39" y="29" width="30" height="25" fill="#001D2C"/>
<rect x="131" y="14" width="55" height="55" fill="#001D2C"/>
<rect x="39" y="122" width="55" height="16" fill="#001D2C"/>
<rect x="39" y="153" width="55" height="16" fill="#001D2C"/>
<path d="M146 153L171.981 186.75H120.019L146 153Z" fill="#001D2C"/>
<path d="M146 139L120.019 105.25L171.981 105.25L146 139Z" fill="#001D2C"/>
<path d="M138 146L105.75 150.33V141.67L138 146Z" fill="#001D2C"/>
<path d="M154 146L186.25 141.67V150.33L154 146Z" fill="#001D2C"/>
</svg>
